<svg width="640" height="640" viewBox="0 0 640 640" fill="none" xmlns="http://www.w3.org/2000/svg">
<rect width="640" height="640" fill="#00024D"/>
<path d="M484 237.9C484 257.213 468.019 273.199 448.701 273.199C429.383 273.199 413.402 257.213 413.402 237.9C413.402 218.588 429.383 202.602 448.701 202.602C468.019 202.602 484 218.588 484 237.9Z" fill="#D9E73C"/>
<path d="M484 403.066C484 422.379 468.019 438.365 448.701 438.365C429.383 438.365 413.402 422.379 413.402 403.066C413.402 383.754 429.383 367.768 448.701 367.768C468.019 367.768 484 383.754 484 403.066Z" fill="#D9E73C"/>
<path d="M239.516 320.5L390.156 155.268H277.083L156.95 284.238V403.056H212.994C259.342 403.056 291.414 422.686 308.682 445.659C321.325 462.47 322.133 485.633 322.133 485.633H405.658C405.658 475.949 404.682 439.285 385.793 403.056C371.178 375.034 322.133 320.506 239.533 320.506H239.522V320.495L239.516 320.5Z" fill="#EFEEEA"/>
</svg>
